<svg id="Layer_1" enable-background="new 0 0 512 512" height="512" viewBox="0 0 512 512" width="512" xmlns="http://www.w3.org/2000/svg"><g><path d="m500.5 210c2.209 0 4 1.791 4 4v42c0 15.72-1.46 31.09-4.26 46-21.664 115.813-123.693 203.337-245.992 202.494-137.227-.946-247.05-111.824-246.747-249.054.302-136.983 111.446-247.94 248.499-247.94 67.147 0 128.07 26.638 172.799 69.908 1.615 1.562 1.657 4.136.068 5.725l-59.418 59.418c-1.53 1.53-4.002 1.569-5.569.078-28.073-26.723-66.057-43.129-107.88-43.129-86.365 0-155.911 69.052-156.496 155.415-.59 86.928 69.705 157.585 156.496 157.585 70.42 0 129.98-46.52 149.62-110.5h-145.62c-2.209 0-4-1.791-4-4v-84c0-2.209 1.791-4 4-4z" fill="#2196f3"/><g><path d="m500.5 210h-30c2.209 0 4 1.791 4 4v42c0 15.72-1.46 31.09-4.26 46-20.667 110.488-114.48 195.225-229.256 202.052 4.391.259 8.812.411 13.264.442 122.299.843 224.329-86.68 245.992-202.494 2.8-14.91 4.26-30.28 4.26-46v-42c0-2.209-1.791-4-4-4z" fill="#1e88e5"/></g><path d="m113.85 190.46-75.47-54.53c42.34-76.58 123.93-128.43 217.62-128.43 67.147 0 128.07 26.638 172.799 69.908 1.615 1.562 1.657 4.136.068 5.725l-59.417 59.417c-1.527 1.527-3.998 1.574-5.562.085-28.074-26.726-66.061-43.135-107.888-43.135-63.03 0-117.36 37.26-142.15 90.96z" fill="#f44336"/><path d="m92.063 174.718 21.787 15.742c22.627-49.015 69.869-84.316 125.869-90.106.422-.045.826-.101 1.255-.142-4.928-.467-9.922-.712-14.974-.712-56.938 0-106.561 30.018-133.937 75.218z" fill="#e53935"/><path d="m398.799 77.408c1.615 1.562 1.657 4.136.068 5.725l-48.227 48.227c4.62 3.514 9.043 7.273 13.241 11.268 1.567 1.492 4.039 1.452 5.569-.078l59.418-59.418c1.589-1.589 1.547-4.163-.068-5.725-44.73-43.269-105.653-69.907-172.8-69.907-5.039 0-10.038.168-15.003.464 61.194 3.645 116.428 29.42 157.802 69.444z" fill="#e53935"/><path d="m438.29 424.88c-45.38 48.97-110.26 79.62-182.29 79.62-97.29 0-181.52-55.91-222.31-137.36l77.05-52.8c23.12 57.53 79.45 98.16 145.26 98.16 41.3 0 78.86-16 106.82-42.14z" fill="#4caf50"/><path d="m110.74 314.34-22.72 15.57c26.389 49.16 78.282 82.59 137.98 82.59 5.049 0 10.039-.247 14.965-.715-59.259-5.65-108.887-44.349-130.225-97.445z" fill="#43a047"/><path d="m256 504.5c72.03 0 136.91-30.65 182.29-79.62l-18.485-13.354c-42.61 53.029-106.531 88.209-178.767 92.522 4.951.295 9.938.452 14.962.452z" fill="#43a047"/><path d="m99.5 256c0 20.62 3.99 40.31 11.24 58.34l-77.05 52.8c-16.76-33.44-26.19-71.19-26.19-111.14 0-43.55 11.2-84.48 30.88-120.07l75.47 54.53c-9.21 19.93-14.35 42.14-14.35 65.54z" fill="#ffc107"/><path d="m88.02 329.91 22.72-15.57c-7.25-18.03-11.24-37.72-11.24-58.34 0-23.4 5.14-45.61 14.35-65.54l-21.787-15.742c-14.148 23.36-22.359 50.772-22.559 80.197-.184 27.135 6.54 52.685 18.516 74.995z" fill="#ffb300"/><path d="m500.5 202.5h-51.961c-4.142 0-7.5 3.358-7.5 7.5s3.358 7.5 7.5 7.5h48.461v38.5c0 15.007-1.39 30.019-4.132 44.621-8.178 43.72-27.85 82.771-55.529 114.319l-62.971-45.49c17.628-18.448 30.956-40.931 38.422-65.249.698-2.275.276-4.746-1.139-6.659-1.414-1.914-3.652-3.042-6.031-3.042h-142.12v-77h152.577c4.142 0 7.5-3.358 7.5-7.5s-3.358-7.5-7.5-7.5h-156.077c-6.341 0-11.5 5.159-11.5 11.5v84c0 6.341 5.159 11.5 11.5 11.5h135.112c-21.99 57.529-76.67 95.5-139.112 95.5-32.68 0-63.699-10.38-89.703-30.019-3.305-2.496-8.009-1.84-10.505 1.465-2.497 3.306-1.84 8.009 1.465 10.505 28.629 21.621 62.774 33.049 98.743 33.049 35.794 0 69.804-11.328 98.355-32.759 3.08-2.312 6.069-4.739 8.973-7.261l63.687 46.008c-43.985 44.2-104.795 71.012-171.022 71.012-.563 0-1.13-.002-1.693-.006-91.081-.628-170.349-52.226-210.778-127.5l63.992-43.852c6.497 13.85 14.945 26.83 25.209 38.519 1.482 1.688 3.555 2.551 5.639 2.551 1.757 0 3.521-.614 4.946-1.864 3.112-2.733 3.42-7.472.687-10.584-24.102-27.449-37.238-62.713-36.99-99.298.552-81.589 67.392-147.966 148.995-147.966 38.417 0 74.893 14.583 102.709 41.061 4.549 4.33 11.596 4.24 16.043-.207l59.418-59.418c2.195-2.195 3.39-5.113 3.364-8.217-.026-3.117-1.276-6.029-3.521-8.202-48.007-46.441-111.227-72.017-178.013-72.017-38.884 0-76.232 8.498-111.006 25.256-3.731 1.798-5.298 6.281-3.5 10.013 1.798 3.73 6.278 5.297 10.013 3.5 32.726-15.772 67.882-23.769 104.493-23.769 61.694 0 120.159 23.186 165.031 65.363l-54.491 54.491c-30.286-27.663-69.402-42.854-110.54-42.854-43.765 0-84.854 16.869-115.7 47.5-11.888 11.806-21.733 25.152-29.372 39.596l-62.724-45.321c18.592-31.589 44.464-59.001 76.285-79.763 3.469-2.264 4.446-6.911 2.183-10.379-2.263-3.47-6.91-4.446-10.379-2.183-72.627 47.386-116.101 127.376-116.292 213.973-.151 68.37 26.12 132.625 73.972 180.929 47.856 48.307 111.861 75.171 180.224 75.643.59.004 1.172.006 1.762.006 59.816-.002 117.937-21.004 163.825-59.245 45.75-38.125 76.942-91.174 87.828-149.371 2.912-15.509 4.388-31.451 4.388-47.385v-42c0-6.341-5.159-11.5-11.5-11.5zm-459.552-55.461 63.485 45.87c-8.007 19.362-12.282 40.316-12.429 61.956-.132 19.479 3.194 38.615 9.656 56.606l-64.873 44.456c-14.047-30.637-21.865-64.674-21.786-100.47.084-38.368 9.198-75.357 25.947-108.418z"/></g></svg>