<svg xmlns="http://www.w3.org/2000/svg" xmlns:xlink="http://www.w3.org/1999/xlink" version="1.1" id="Layer_1" x="0px" y="0px" viewBox="0 0 1080 1080" enable-background="new 0 0 1080 1080" xml:space="preserve">
<path opacity="0.06" fill="#2A94F4" d="M267.733,721.269c0,0-31.78-67.465,21.11-109.191c52.89-41.726-44.11-84.089-9.11-135.908  s154-9.818,151-105.818s97-122,130-93S598.268,447.702,693,432.527C787.733,417.352,876.733,617.648,800.733,721L267.733,721.269z"/>
<ellipse fill="#F2F2F2" cx="555.5" cy="731.5" rx="340.5" ry="35.5"/>
<path fill="#2A94F4" d="M307.134,545.632c0-50.967,58.621-92.284,130.933-92.284S569,494.665,569,545.632  s-58.621,92.284-130.933,92.284c-0.829,0-1.655-0.011-2.481-0.022c-11.588,12.684-37.193,31.331-85.86,27.628  c0,0,28.742-11.02,38.44-34.552C340.61,617.141,307.134,584.144,307.134,545.632z"/>
<path fill="#FFBE55" d="M750,473c0-64.617-74.321-117-166-117s-166,52.383-166,117s74.321,117,166,117  c1.052,0,2.098-0.014,3.145-0.028C601.837,606.054,634.299,629.695,696,625c0,0-36.44-13.972-48.736-43.806  C707.559,563.661,750,521.827,750,473z"/>
<circle fill="#FFFFFF" cx="537" cy="471" r="18"/>
<circle fill="#FFFFFF" cx="586.5" cy="471" r="18"/>
<circle fill="#FFFFFF" cx="636" cy="471" r="18"/>
<g>
	<g>
		<g>
			<g>
				<path fill="#2A94F4" d="M241.141,731.756c5.443-0.408,16.145-4.634,18.734-10.648c2.59-6.015,1.389-12.093-2.009-17.76      c-1.646-2.745-6.308-6.818-6.972-10.237c-1.125-5.793,1.337-11.826,1.221-15.75c-0.116-3.923-2.067-8.474-5.963-10.165      c-9.783-4.247-17.915-12.117-20.572-13.399c-3.187-1.537-7.41-1.193-9.577,1.555c-4.174,5.294,1.183,9.281,3.12,11.803      c8.208,10.696-5.834,14.459-6.168,24.858c-0.178,5.515,14.649,15.779,14.645,17.057c-0.006,1.971-1.247,3.402-2.774,4.548      c-1.528,1.145-3.344,4.347-2.244,7.705C225.486,730.184,235.128,732.207,241.141,731.756z"/>
			</g>
		</g>
		<path fill="#0B4870" d="M230.916,680.263c1.505,3.967,2.912,7.967,4.304,11.971c1.393,4.002,2.707,8.033,4.065,12.047    l3.858,12.118c1.248,4.051,2.482,8.106,3.616,12.195c-1.506-3.966-2.913-7.966-4.305-11.97l-4.064-12.049    c-1.283-4.04-2.609-8.065-3.856-12.117C233.286,688.407,232.051,684.35,230.916,680.263z"/>
		<path fill="#0B4870" d="M238.865,705.408c0.614-2.886,1.498-5.678,2.448-8.448c0.49-1.379,0.991-2.755,1.544-4.112    c0.54-1.352,1.123-2.75,2.025-3.929c-0.579,1.358-0.901,2.766-1.331,4.172c-0.411,1.406-0.874,2.796-1.348,4.181    C241.223,700.03,240.179,702.767,238.865,705.408z"/>
		<path fill="#0B4870" d="M233.752,715.273c2.067,0.56,3.998,1.466,5.843,2.509c0.916,0.536,1.815,1.1,2.671,1.729    c0.431,0.313,0.845,0.633,1.263,0.982c0.393,0.362,0.82,0.803,0.902,1.351c-0.285-0.458-0.705-0.741-1.167-0.971l-1.391-0.74    c-0.927-0.497-1.834-1.019-2.747-1.533C237.317,717.542,235.502,716.503,233.752,715.273z"/>
		<path fill="#0B4870" d="M224.793,685.783c2.105,1.075,3.906,2.603,5.645,4.136c1.725,1.565,3.361,3.186,4.958,4.908    c-2.066-1.141-3.855-2.669-5.589-4.206C228.083,689.06,226.446,687.447,224.793,685.783z"/>
	</g>
	<g>
		<g opacity="0.63">
			<path fill="#2A94F4" d="M242.478,731.274c2.668-1.847,5.507-4.527,4.723-8.133c-0.785-3.607-3.71-5.788-7.265-6.583     c-1.723-0.384-3.944-0.209-5.493-1.021c-0.834-0.438-1.256-0.977-1.567-1.632c-0.604-1.272-0.44-1.955-0.767-3.293     c-0.326-1.34-0.757-2.545-2.254-3.343c-2.914-1.552-6.949,0.539-9.844-1.496c-1.365-0.96-1.378-2.384-1.719-4.041     c-0.343-1.658-0.667-3.874-2.024-5.29c-1.357-1.414-3.208-2.54-5.324-1.518c-2.116,1.019-2.917,3.612-3.234,6.003     c-0.209,1.585-0.612,3.11-0.463,4.907c0.413,4.991,0.518,9.195,4.841,12.721c3.486,2.846,8.89,0.773,13.085,10.499     C228.994,737.915,239.475,733.35,242.478,731.274z"/>
		</g>
		<path fill="#0B4870" d="M218.947,711.348c2.269,1.207,4.483,2.502,6.688,3.809c2.212,1.298,4.383,2.658,6.555,4.02    c2.159,1.381,4.318,2.763,6.437,4.205c2.124,1.436,4.24,2.885,6.301,4.421c-2.27-1.205-4.484-2.5-6.69-3.807    c-2.212-1.299-4.383-2.66-6.554-4.023c-2.159-1.381-4.318-2.763-6.437-4.206C223.124,714.332,221.008,712.884,218.947,711.348z"/>
		<path fill="#0B4870" d="M230.162,718.652c-0.997-1.515-1.995-2.979-2.762-4.642c-0.372-0.83-0.703-1.695-0.873-2.611    c-0.184-0.906-0.197-1.883,0.1-2.755c0.071,0.913,0.327,1.744,0.61,2.562c0.299,0.814,0.644,1.614,1.02,2.412    C228.962,715.221,229.84,716.832,230.162,718.652z"/>
		<path fill="#0B4870" d="M233.736,726.592c0.596-0.352,1.078-0.775,1.638-1.152c0.547-0.389,1.174-0.742,1.885-0.936    c0.711-0.184,1.479-0.18,2.17,0.022c0.698,0.184,1.296,0.578,1.816,1.025c-1.363-0.266-2.584-0.476-3.745-0.136    c-0.585,0.141-1.156,0.409-1.772,0.666C235.123,726.345,234.434,726.595,233.736,726.592z"/>
		<path fill="#0B4870" d="M215.863,714.793c1.434-0.484,2.88-0.778,4.383-0.869c0.749-0.029,1.511-0.021,2.267,0.119    c0.749,0.125,1.523,0.392,2.103,0.896c-0.741-0.169-1.45-0.159-2.165-0.164c-0.714,0.016-1.431,0.045-2.155,0.091    C218.85,714.921,217.372,715.046,215.863,714.793z"/>
	</g>
</g>
<g>
	<polygon fill="#FFBE55" points="315.054,675.123 294.992,678.421 283.004,680.39 258.741,676.038 243.154,673.242 267.944,666.822     "/>
	<polygon fill="#FFBE55" points="294.992,678.421 283.004,680.39 258.741,676.038 267.944,673.656  "/>
	<g>
		<g>
			<path fill="#0B4870" d="M317.435,631.347l-10.498,28.808c-0.179,0.491,0.159,1.018,0.68,1.058l31.872,2.529     c1.747,0.137,3.372-0.906,3.972-2.553l9.687-26.585c0.179-0.491-0.159-1.016-0.68-1.058l-34.229-2.715     C317.885,630.802,317.556,631.013,317.435,631.347z"/>
			<polygon fill="#D3D3D3" points="342.999,659.105 351.91,634.651 318.419,631.995 309.508,656.448    "/>
			<g id="XMLID_259_">
				<g id="XMLID_263_">
					<path fill="#D3D3D3" d="M346.148,639.456c-0.058-0.195-0.224-0.336-0.418-0.353c-0.115-0.011-0.231,0.026-0.327,0.099       l-7.171,5.562l-6.719,1.662c-0.141,0.035-0.238,0.133-0.301,0.2c-0.01,0.01-0.02,0.02-0.029,0.029l-5.338,4.749l-6.256-3.991       c-0.049-0.031-0.105-0.05-0.162-0.055c-0.189-0.017-0.329,0.113-0.409,0.216l-5.616,4.572l0.621,0.742       c2.256-1.854,4.963-4.015,5.399-4.443l6.23,3.972c0.056,0.037,0.124,0.059,0.196,0.066c0.129,0.01,0.26-0.029,0.349-0.11       l5.684-5.056c0.354-0.077,6.626-1.632,6.626-1.632c0.22-0.054,7.472-5.714,7.472-5.714       C346.141,639.847,346.205,639.65,346.148,639.456z"/>
				</g>
				<path id="XMLID_260_" fill="#D3D3D3" d="M347.478,638.137l-4.631,1.376l2.461,0.353l0.062,2.363L347.478,638.137z"/>
			</g>
			<polygon opacity="0.55" fill="#D3D3D3" points="320.054,640.755 320.856,638.556 316.876,638.24 316.075,640.439    "/>
			<polygon opacity="0.55" fill="#D3D3D3" points="318.883,643.904 319.685,641.704 315.706,641.389 314.905,643.588    "/>
			<polygon opacity="0.55" fill="#D3D3D3" points="317.714,647.053 318.515,644.853 314.536,644.539 313.734,646.738    "/>
			<polygon opacity="0.55" fill="#D3D3D3" points="316.543,650.202 317.344,648.001 313.366,647.687 312.565,649.886    "/>
			<g>
				<path fill="#D3D3D3" d="M311.862,661.525l-33.411-2.687c-0.781-0.064-1.369-0.753-1.305-1.534l0,0      c0.062-0.78,0.753-1.368,1.533-1.307l33.411,2.687c0.781,0.064,1.369,0.754,1.307,1.536l0,0      C313.332,661,312.643,661.588,311.862,661.525z"/>
			</g>
			<polygon opacity="0.55" fill="#D3D3D3" points="341.609,632.48 319.863,659.11 327.134,659.892 348.88,633.26    "/>
			<g>
				<g>
					<path fill="#D3D3D3" d="M340.864,663.857l-30.755-2.473c-0.801-0.064-1.403-0.771-1.338-1.571l0,0       c0.064-0.8,0.771-1.402,1.572-1.338l30.755,2.473c0.8,0.064,1.402,0.772,1.337,1.572l0,0       C342.372,663.319,341.664,663.921,340.864,663.857z"/>
				</g>
				<g>
					
						<rect x="331.309" y="661.219" transform="matrix(0.9968 0.08 -0.08 0.9968 54.0174 -24.5031)" fill="#0B4870" width="2.77" height="0.832"/>
					
						<rect x="328.479" y="660.961" transform="matrix(0.9968 0.0799 -0.0799 0.9968 53.8643 -24.1979)" fill="#0B4870" width="2.008" height="0.832"/>
				</g>
			</g>
			<path opacity="0.55" fill="#D3D3D3" d="M321.556,634.738c-0.097,0.852-0.85,1.489-1.681,1.423     c-0.833-0.066-1.427-0.811-1.33-1.663c0.098-0.852,0.851-1.489,1.682-1.423C321.059,633.141,321.654,633.885,321.556,634.738z"/>
		</g>
		<g>
			<path fill="#D3D3D3" d="M299.698,661.164c0.013,0.361-1.521,0.746-1.864,0.644c-0.751-0.494-0.46-0.931-1.231-1.291     c0.715,0.215,1.516,0.289,2.268,0.277C299.284,660.76,299.726,660.605,299.698,661.164z"/>
			<path fill="#D3D3D3" d="M298.331,661.535c0.894,0.576,2.743,2.083,2.872,2.189c0.359,0.328,1.363,1.032,1.56,1.36     c0.125,0.209,0.229,0.922,0.114,1.2c-0.151,0.37-0.591,0.335-0.591,0.335c-0.098,0.508-1.308,0.023-1.304,0.152     c0.015,0.53-0.707,0.713-2.127-0.503c-0.085-0.071-4.162-2.366-5.404-3.207c0.454-0.807,2.529-2.847,2.574-2.831     C296.794,660.592,297.58,661.043,298.331,661.535z"/>
			<path fill="#D3D3D3" d="M277,641.6c0.3,0.118,0.557,0.267,0.747,0.425c3.468,2.903,14.433,15.876,18.528,18.326     c-1.059,1.136-1.864,2.154-2.319,3.031c-6.652-4.164-22.046-16.401-21.199-19.421C273.533,641.196,275.679,641.082,277,641.6z"/>
			<path fill="#D3D3D3" d="M276.335,617.538c1.123,4.029,1.258,17.525,2.557,23.974c1.596,7.909-4.491,6.197-5.748,3.958     c-3.309-5.896-8.776-23.437-5.897-25.468C268.494,619.121,276.13,616.808,276.335,617.538z"/>
			<path fill="#D3D3D3" d="M277.726,617.011c2.776,3.362,1.455,21.144,2.094,24.314c0.109,0.541,0.186,1.067,0.231,1.565     c1.381,1.376,3.174,3.293,5.066,5.316c4.129,4.417,9.27,9.912,11.643,11.333l-3.305,4.643     c-5.857-3.666-18.66-13.653-21.167-18.307c-2.687-4.821-8.48-21.405-6.37-25.708     C269.091,613.703,275.274,614.041,277.726,617.011z"/>
		</g>
		<path fill="#0B4870" d="M272.721,664.379c5.72-2.176,33.983-8.453,48.774-6.069c8.872,1.429,7.494,10.435,4.891,11.612    c-6.957,3.145-34.185,12.951-46.66,11.246C270.136,679.859,269.669,665.542,272.721,664.379z"/>
		<path fill="#0B4870" d="M264.533,665.713c3.588-4.958,34.539-11.16,49.33-8.777c8.871,1.429,7.16,9.876,4.892,11.612    c-4.692,3.591-23.906,14.206-44.335,11.443C264.829,678.694,260.615,671.125,264.533,665.713z"/>
		<path fill="#FCD2B1" d="M321.831,709.608c-0.644,1.306-0.755,2.301-0.755,2.301c-1.412,1.035-3.704,0.715-3.735,0.605    c0,0-0.104-1.638,0.514-3.754C318.073,708.813,320.487,707.904,321.831,709.608z"/>
		<path fill="#0B4870" d="M328.23,666.847c-3.14,21.633-6.028,43.905-6.028,43.905c-1.062-0.912-3.326-0.951-4.719,0.089    c0,0-1.561-21.646-2.214-40.867C314.839,657.3,329.511,658.02,328.23,666.847z"/>
		<path fill="#D3D3D3" d="M321.284,710.991c0,0,0.071,0.24,0.553,0.879c0.931,1.231,5.546,4.229,5.455,5.9    c-0.045,0.843-1.861,1.505-3.311,1.484c-1.45-0.02-2.715-0.17-3.464-0.669c-0.934-0.622-2.597-3.138-2.923-3.649    c-0.803-1.266-0.125-3.246-0.125-3.246C318.609,709.857,321.284,710.991,321.284,710.991z"/>
		<path fill="#D3D3D3" d="M320.962,713.011c1.27,1.225,5.618,3.574,5.542,4.981c-0.038,0.71-1.566,1.266-2.788,1.249    c-1.221-0.017-2.285-0.142-2.917-0.563c-0.786-0.523-2.231-2.618-2.461-3.073C317.079,713.112,319.729,711.823,320.962,713.011z"/>
		<path fill="#D3D3D3" d="M288.303,708.604c-0.391,2.144-1.016,4.24-1.016,4.24c-0.048,0.105-3.135-1.004-4.365-2.247    c0,0,0.945-1.461,1.629-2.821C286.146,706.304,288.079,708.622,288.303,708.604z"/>
		<path fill="#0B4870" d="M306.956,677.607c-10.603,19.117-18.467,32.299-18.467,32.299c-0.67-1.229-2.676-2.136-4.347-1.656    c0,0,5.207-15.131,11.41-33.336C299.642,662.911,311.281,669.808,306.956,677.607z"/>
		<path fill="#D3D3D3" d="M283.119,710.438l0.032-0.031c0.802-0.773,1.984-1.09,3.025-0.693c0.013,0.006,0.027,0.012,0.042,0.017    c0.805,0.323,1.273,1.166,1.207,2.03c-0.058,0.759-0.208,1.85-0.596,2.371c-0.362,0.486-2.44,2.678-3.461,3.145    c-0.818,0.375-2.09,0.325-3.525,0.117c-1.435-0.208-3.125-1.146-3.037-1.986C276.978,713.743,282.007,711.507,283.119,710.438z"/>
		<path fill="#D3D3D3" d="M283.805,711.703c1.405-0.98,3.818,0.71,2.183,2.974c-0.299,0.414-2.053,2.254-2.913,2.649    c-0.689,0.316-1.761,0.273-2.969,0.098c-1.209-0.174-2.63-0.965-2.557-1.673C277.694,714.351,282.357,712.712,283.805,711.703z"/>
		<path fill="#D3D3D3" d="M264.984,652.941c6.789,0.894,13.54,1.885,20.394,2.04c4.242,0.096,5.558-1.004,9.325-2.094    c0.313,1.031,0.296,3.092,2.16,5.581c1.419,1.896,3.529,6.617-6.392,11.868c-16.744,8.862-30.574-0.98-31.225-1.031    c0.029-5.251,0.485-11.16,1.146-17.062C261.881,652.53,263.416,652.735,264.984,652.941z"/>
		<path fill="#FCD2B1" d="M278.115,602.098c0.493,0.365,5.611,3.224,7.074,3.006c-0.014,0.406-1.012,4.692-0.071,7.002    c-0.414,2.144-6.358,2.142-7.986-1.496C277.817,609.576,278.399,604.076,278.115,602.098z"/>
		<path fill="#FCD2B1" d="M286.492,591.987c3.292,0.468,6.271,1.886,6.338,5.101c0.026,1.152-2.538,11.104-8.15,11.334    c-4.002,0.164-5.851-4.571-5.476-7.212c0,0,0.511-3.599,0.516-3.634C280.217,594.075,282.957,591.488,286.492,591.987z"/>
		<path fill="#0B4870" d="M271.098,612.197c1.521-0.36,6.034-1.587,6.034-1.587s0.885,1.237,3.633,1.823    c2.469,0.526,4.353-0.327,4.353-0.327s5.414,2.292,6.349,2.865c5.607,3.429,4.135,7.1,4.374,12.147    c0.111,2.352-3.012,18.979,0.918,29.511c1.366,3.659-10.991,14.961-33.243,9.686l-1.836-8.43l-1.569,7.947    c-0.858-0.108-1.635-0.19-2.313-0.24c0.119-20.492,5.921-40.389,6.17-41.323C265.029,620.32,266.536,613.279,271.098,612.197z"/>
		<path fill="#0B4870" d="M276.358,587.885c5.187-4.065,13.285-1.342,15.577,3.977c1.711,3.965,3.955,2.427,3.791,1.376    c0.515,2.635-0.598,4.918-5.693,4.536c-1.07-0.081,2.368,0.982,2.368,0.982s-5.443,11.281-13.847,8.518    c-2.498-0.823-4.673-3.263-4.673-3.263s2.723,0.453,1.289-1.767C272.385,597.936,271.779,591.475,276.358,587.885z"/>
		<g>
			<path fill="#D3D3D3" d="M327.279,656.907c0.164,0.322-1.812,2.02-2.171,2.022c-0.898,0-1.48-0.323-1.422-0.997     c0.74-0.105,2.011-0.683,2.687-1.011C326.732,656.715,327.068,656.389,327.279,656.907z"/>
			<path fill="#D3D3D3" d="M325.254,658.096c1.052,0.144,5.198,1.134,5.514,1.349c0.202,0.137,0.949,0.304,0.921,0.901     c-0.02,0.399-0.705,0.692-0.705,0.692c0.365,0.875-1.201,0.768-1.127,0.874c0.366,0.528-0.414,0.817-2.262,0.538     c-1.487-0.225-3.779-0.394-6.124-0.912c0.072-0.922,1.092-3.648,1.14-3.653C323.463,657.888,324.365,657.967,325.254,658.096z"/>
			<path fill="#D3D3D3" d="M299.804,648.016c0.316,0.061,0.595,0.162,0.811,0.284c3.931,2.236,18.298,8.153,22.765,9.83     c-0.839,1.308-1.576,2.47-1.866,3.414c-6.648-1.465-26.06-6.672-25.766-9.794C296.015,648.891,298.41,647.743,299.804,648.016z"/>
			<path fill="#D3D3D3" d="M294.359,622.803c1.602,3.865,3.364,17.246,5.433,23.489c2.538,7.661-3.712,6.696-5.229,4.625     c-3.996-5.455-12.365-22.318-9.752-24.683C285.944,625.211,294.068,622.104,294.359,622.803z"/>
			<path fill="#0B4870" d="M295.709,620.687c0.606,4.231,1.212,8.143,2.116,12.771c0.909,4.656,3.179,13.575,3.284,14.064     c1.537,1.2,17.111,7.712,19.639,8.836l-1.878,5.248c-6.426-2.019-22.056-5.867-25.106-10.183     c-3.25-4.461-13.055-21.818-10.456-25.843C285.894,621.573,295.66,620.351,295.709,620.687z"/>
		</g>
	</g>
	<polygon fill="#FFBE55" points="283,680.39 283,737.041 304.331,730.757 315.052,675.118  "/>
	<polygon fill="#FFBE55" points="283,680.39 243.153,673.241 251.461,730.757 283,737.041  "/>
</g>
<g>
	<g>
		<path fill="#0B4870" d="M680.96,637.185l8.641,31.187c0.147,0.531-0.252,1.057-0.804,1.057h-33.746    c-1.85,0-3.473-1.234-3.966-3.017l-7.974-28.781c-0.147-0.531,0.253-1.057,0.804-1.057h36.242    C680.53,636.573,680.86,636.822,680.96,637.185z"/>
		<polygon fill="#FFFFFF" points="651.745,664.257 644.41,637.784 679.869,637.784 687.205,664.257   "/>
		<g>
			<path fill="#D3D3D3" d="M684.305,669.402l35.379-0.039c0.827-0.001,1.503-0.679,1.502-1.505l0,0     c-0.001-0.827-0.678-1.504-1.505-1.502l-35.379,0.039c-0.827,0.001-1.503,0.679-1.502,1.505l0,0     C682.801,668.727,683.478,669.402,684.305,669.402z"/>
		</g>
		<g>
			<g>
				<path fill="#D3D3D3" d="M653.595,669.435l32.567-0.036c0.847,0,1.54-0.694,1.539-1.543l0,0c-0.001-0.847-0.695-1.54-1.543-1.538      l-32.566,0.036c-0.848,0-1.54,0.694-1.54,1.542l0,0C652.053,668.743,652.748,669.437,653.595,669.435z"/>
			</g>
			<g>
				
					<rect x="660.914" y="667.341" transform="matrix(-1 9.687571e-04 -9.687571e-04 -1 1325.3992 1334.9164)" fill="#0B4870" width="2.925" height="0.877"/>
				
					<rect x="664.716" y="667.337" transform="matrix(-1 6.681810e-04 -6.681810e-04 -1 1331.9985 1335.1064)" fill="#0B4870" width="2.12" height="0.877"/>
			</g>
		</g>
		<g>
			<g>
				<polygon fill="#D3D3D3" points="670.865,646.443 666.096,646.443 665.862,645.605 670.632,645.605     "/>
				<polygon fill="#D3D3D3" points="663.722,646.443 653.279,646.443 653.044,645.605 663.488,645.605     "/>
				<polygon fill="#D3D3D3" points="652.058,646.443 649.888,646.443 649.653,645.605 651.824,645.605     "/>
				<polygon fill="#D3D3D3" points="657.446,647.77 650.258,647.77 650.024,646.931 657.212,646.931     "/>
				<polygon fill="#D3D3D3" points="671.236,647.77 669.518,647.77 669.284,646.931 671.002,646.931     "/>
				<polygon fill="#D3D3D3" points="668.637,647.77 659.142,647.77 658.909,646.931 668.402,646.931     "/>
				<polygon fill="#D3D3D3" points="671.607,649.096 665.888,649.096 665.653,648.258 671.372,648.258     "/>
				<polygon fill="#D3D3D3" points="664.734,649.096 650.628,649.096 650.395,648.258 664.501,648.258     "/>
			</g>
			<polygon fill="#D3D3D3" points="680.137,647.14 673.273,647.14 672.955,646 679.818,646    "/>
			<polygon fill="#D3D3D3" points="681.032,650.344 674.168,650.344 673.85,649.203 680.713,649.203    "/>
			<polygon fill="#D3D3D3" points="681.926,653.549 675.064,653.549 674.745,652.407 681.608,652.407    "/>
			<polygon fill="#D3D3D3" points="682.822,656.753 675.958,656.753 675.639,655.61 682.503,655.61    "/>
			<polygon fill="#D3D3D3" points="683.716,659.956 676.853,659.956 676.534,658.814 683.398,658.814    "/>
			<polygon fill="#D3D3D3" points="684.611,663.16 677.748,663.16 677.429,662.018 684.292,662.018    "/>
			<g>
				<polygon fill="#FFBE55" points="673.736,663.16 671.068,663.16 669.341,656.978 672.009,656.978     "/>
				<polygon fill="#0E538C" points="668.832,663.16 666.164,663.16 663.763,654.564 666.431,654.564     "/>
				<polygon fill="#0B4870" points="663.928,663.16 661.261,663.16 658.296,652.546 660.963,652.546     "/>
				<polygon fill="#D3D3D3" points="659.025,663.16 656.356,663.16 652.882,650.721 655.549,650.721     "/>
			</g>
		</g>
	</g>
	<g>
		<path fill="#0B4870" d="M782.976,637.185l8.641,31.187c0.147,0.531-0.252,1.057-0.804,1.057h-33.746    c-1.85,0-3.472-1.234-3.966-3.017l-7.974-28.781c-0.147-0.531,0.252-1.057,0.804-1.057h36.241    C782.546,636.573,782.876,636.822,782.976,637.185z"/>
		<polygon fill="#FFFFFF" points="753.761,664.257 746.425,637.784 781.885,637.784 789.221,664.257   "/>
		<g>
			<path fill="#D3D3D3" d="M786.321,669.402l35.379-0.039c0.827-0.001,1.503-0.679,1.502-1.505l0,0     c-0.001-0.827-0.678-1.504-1.505-1.502l-35.379,0.039c-0.827,0.001-1.502,0.679-1.502,1.505l0,0     C784.817,668.727,785.494,669.402,786.321,669.402z"/>
		</g>
		<g>
			<g>
				<path fill="#D3D3D3" d="M755.61,669.435l32.567-0.036c0.847,0,1.54-0.694,1.539-1.543l0,0c-0.001-0.847-0.695-1.54-1.543-1.538      l-32.567,0.036c-0.847,0-1.54,0.694-1.539,1.542l0,0C754.069,668.743,754.763,669.437,755.61,669.435z"/>
			</g>
			<g>
				
					<rect x="762.93" y="667.341" transform="matrix(-1 9.687571e-04 -9.687571e-04 -1 1529.4314 1334.8175)" fill="#0B4870" width="2.924" height="0.877"/>
				
					<rect x="766.732" y="667.337" transform="matrix(-1 6.681810e-04 -6.681810e-04 -1 1536.0303 1335.0383)" fill="#0B4870" width="2.12" height="0.877"/>
			</g>
		</g>
		<g>
			<g>
				<polygon fill="#D3D3D3" points="772.881,646.443 768.112,646.443 767.878,645.605 772.648,645.605     "/>
				<polygon fill="#D3D3D3" points="765.738,646.443 755.294,646.443 755.06,645.605 765.504,645.605     "/>
				<polygon fill="#D3D3D3" points="754.073,646.443 751.903,646.443 751.67,645.605 753.84,645.605     "/>
				<polygon fill="#D3D3D3" points="759.463,647.77 752.274,647.77 752.04,646.931 759.228,646.931     "/>
				<polygon fill="#D3D3D3" points="773.252,647.77 771.535,647.77 771.3,646.931 773.018,646.931     "/>
				<polygon fill="#D3D3D3" points="770.653,647.77 761.158,647.77 760.924,646.931 770.418,646.931     "/>
				<polygon fill="#D3D3D3" points="773.623,649.096 767.904,649.096 767.67,648.258 773.388,648.258     "/>
				<polygon fill="#D3D3D3" points="766.75,649.096 752.645,649.096 752.41,648.258 766.517,648.258     "/>
			</g>
			<g id="XMLID_95_">
				<g id="XMLID_96_">
					<path fill="#D3D3D3" d="M777.302,638.639l0.656,2.346l2.443,0.746c-0.045,0.945-0.731,1.633-1.779,1.633       c-1.305,0-2.657-1.057-3.022-2.363C775.236,639.696,775.998,638.639,777.302,638.639z"/>
				</g>
			</g>
			<g id="XMLID_93_">
				<g id="XMLID_94_">
					<path fill="#0E538C" d="M768.897,638.639c0.017,0,0.033,0.004,0.049,0.005l0.668,2.389h2.311       c0.342,1.289-0.415,2.33-1.708,2.33c-1.305,0-2.657-1.057-3.022-2.363C766.831,639.696,767.592,638.639,768.897,638.639z"/>
				</g>
			</g>
			<g id="XMLID_91_">
				<g id="XMLID_92_">
					<path fill="#0B4870" d="M760.492,638.639c0.016,0,0.032,0.004,0.048,0.005l0.658,2.356l1.754-1.063       c0.253,0.321,0.454,0.678,0.561,1.063c0.365,1.306-0.398,2.363-1.702,2.363c-1.305,0-2.657-1.057-3.022-2.363       C758.425,639.696,759.187,638.639,760.492,638.639z"/>
				</g>
			</g>
			<g id="XMLID_85_">
				<g id="XMLID_90_">
					<path fill="#FFBE55" d="M752.087,638.639c0.06,0,0.12,0.014,0.18,0.018l0.628,2.25l0.661-1.839       c0.729,0.426,1.328,1.132,1.552,1.933c0.365,1.306-0.398,2.363-1.702,2.363c-1.305,0-2.658-1.057-3.023-2.363       C750.019,639.696,750.782,638.639,752.087,638.639z"/>
				</g>
			</g>
			<polygon fill="#D3D3D3" points="782.153,647.14 775.289,647.14 774.971,646 781.834,646    "/>
			<polygon fill="#D3D3D3" points="783.048,650.344 776.184,650.344 775.866,649.203 782.729,649.203    "/>
			<polygon fill="#D3D3D3" points="783.942,653.549 777.08,653.549 776.761,652.407 783.623,652.407    "/>
			<polygon fill="#D3D3D3" points="784.837,656.753 777.974,656.753 777.655,655.61 784.519,655.61    "/>
			<polygon fill="#D3D3D3" points="785.732,659.956 778.869,659.956 778.55,658.814 785.414,658.814    "/>
			<polygon fill="#D3D3D3" points="786.627,663.16 779.764,663.16 779.445,662.018 786.308,662.018    "/>
			<g>
				<polygon fill="#FFBE55" points="775.751,663.16 773.083,663.16 771.357,656.978 774.025,656.978     "/>
				<polygon fill="#0E538C" points="770.848,663.16 768.18,663.16 765.779,654.564 768.447,654.564     "/>
				<polygon fill="#0B4870" points="765.944,663.16 763.276,663.16 760.312,652.546 762.979,652.546     "/>
				<polygon fill="#D3D3D3" points="761.04,663.16 758.372,663.16 754.898,650.721 757.566,650.721     "/>
			</g>
		</g>
		<polygon opacity="0.4" fill="#D3D3D3" points="766.994,636.573 787.653,666.408 773.755,666.408 753.096,636.573   "/>
	</g>
	<g>
		<g>
			<rect x="626.727" y="675.35" fill="#FFBE55" width="3.462" height="65.843"/>
			<rect x="664.25" y="675.35" fill="#FFBE55" width="3.46" height="65.843"/>
			<rect x="802.307" y="675.35" fill="#FFBE55" width="3.461" height="65.843"/>
			<rect x="846.911" y="675.35" fill="#FFBE55" width="3.461" height="65.843"/>
		</g>
		<g>
			<rect x="615.752" y="669.366" fill="#FFBE55" width="61.69" height="6.056"/>
			<rect x="677.442" y="669.366" fill="#FFBE55" width="183.558" height="6.056"/>
		</g>
	</g>
	<g>
		<path fill="#0E538C" d="M726.764,674.163c-5.954-0.379-34.114,2.125-47.259,8.97c-7.884,4.105-4.067,12.478-1.305,12.832    c7.382,0.946,35.566,2.205,46.739-3.27C733.526,688.487,729.941,674.365,726.764,674.163z"/>
		<path fill="#D3D3D3" d="M697.173,731.882c0.421,1.357,0.376,2.331,0.376,2.331c1.201,1.212,3.456,1.256,3.503,1.154    c0,0,0.35-1.56,0.079-3.692C700.913,731.692,698.728,730.449,697.173,731.882z"/>
		<path fill="#0E538C" d="M676.408,695.539c10.335,18.634,20.662,37.934,20.662,37.934c0.652-1.198,2.703-2.016,4.332-1.548    c0,0-6.054-20.268-12.099-38.012C685.316,682.213,672.193,687.938,676.408,695.539z"/>
		<path fill="#D3D3D3" d="M697.488,733.297c0,0-0.106,0.22-0.668,0.761c-1.083,1.043-5.985,3.222-6.154,4.844    c-0.085,0.819,1.561,1.733,2.96,1.937c1.399,0.202,2.638,0.25,3.437-0.115c0.994-0.455,2.981-2.622,3.372-3.064    c0.967-1.096,0.617-3.105,0.617-3.105C700.237,732.615,697.488,733.297,697.488,733.297z"/>
		<path fill="#D3D3D3" d="M697.489,735.291c-1.41,0.984-5.956,2.58-6.098,3.946c-0.072,0.69,1.314,1.461,2.492,1.631    c1.178,0.17,2.222,0.212,2.894-0.096c0.838-0.385,2.548-2.179,2.84-2.582C701.21,735.983,698.857,734.336,697.489,735.291z"/>
		<path fill="#D3D3D3" d="M724.142,732.271c0.38,2.089,0.99,4.133,0.99,4.133c0.047,0.102,3.055-0.978,4.256-2.19    c0,0-0.921-1.425-1.588-2.749C726.245,730.029,724.36,732.289,724.142,732.271z"/>
		<path fill="#0E538C" d="M705.962,702.058c10.335,18.633,17.999,31.481,17.999,31.481c0.652-1.2,2.608-2.082,4.237-1.614    c0,0-5.075-14.748-11.121-32.491C713.091,687.733,701.746,694.457,705.962,702.058z"/>
		<path fill="#D3D3D3" d="M729.195,734.058l-0.031-0.03c-0.782-0.753-1.933-1.063-2.947-0.674c-0.013,0.004-0.027,0.01-0.041,0.015    c-0.784,0.315-1.241,1.137-1.177,1.98c0.057,0.74,0.203,1.803,0.582,2.31c0.352,0.473,2.378,2.609,3.372,3.064    c0.798,0.365,2.037,0.317,3.437,0.115c1.399-0.203,3.044-1.118,2.959-1.937C735.18,737.28,730.28,735.101,729.195,734.058z"/>
		<path fill="#D3D3D3" d="M728.527,735.291c-1.369-0.955-3.721,0.692-2.128,2.9c0.291,0.403,2.003,2.197,2.84,2.582    c0.672,0.307,1.716,0.266,2.894,0.096c1.178-0.17,2.564-0.941,2.492-1.631C734.482,737.871,729.937,736.275,728.527,735.291z"/>
		<path fill="#D3D3D3" d="M744.619,666.746c-6.617,0.87-13.197,1.836-19.877,1.988c-4.134,0.094-8.063-0.362-11.734-1.425    c0.019,6.442-1.24,7.425-4.008,9.163c1.958,7.077,5.905,8.948,9.269,10.199c17.305,6.44,31.308-3.926,31.943-3.976    c-0.029-5.118-0.473-10.879-1.118-16.63C747.643,666.343,746.147,666.544,744.619,666.746z"/>
		<path fill="#FCD2B1" d="M725.82,617.189c-0.481,0.356-5.468,3.143-6.895,2.932c0.012,0.396,0.985,4.573,0.069,6.823    c0.403,2.09,6.197,2.088,7.784-1.458C726.11,624.477,725.543,619.118,725.82,617.189z"/>
		<path fill="#FCD2B1" d="M718.657,607.246c-3.233-0.212-6.359,0.547-7.066,3.601c-0.253,1.094,0.208,11.1,5.515,12.439    c3.786,0.955,6.494-3.193,6.664-5.787c0,0,0.232-3.536,0.234-3.571C724.227,610.489,722.129,607.473,718.657,607.246z"/>
		<path fill="#FFBE55" d="M732.66,627.033c-1.482-0.351-5.881-1.547-5.881-1.547s-0.863,1.205-3.542,1.776    c-2.406,0.513-4.243-0.318-4.243-0.318s-5.276,2.234-6.188,2.792c-5.466,3.343-4.031,6.922-4.264,11.84    c-0.109,2.294,0.461,26.569-5.105,34.669c0.185,0.325,2.193,5.133,6.789,6.349l1.127-9.965l1.022,10.423    c10.769,2.312,19.019-1.948,27.673-3.272l0.83-13.075l2.489,12.606c0.836-0.104,1.593-0.184,2.254-0.234    c-0.115-19.973-5.771-39.367-6.014-40.276C738.576,634.95,737.106,628.088,732.66,627.033z"/>
		<path fill="#0B4870" d="M727.533,603.336c-5.056-3.962-12.948-1.307-15.182,3.876c-1.667,3.865-3.855,2.366-3.696,1.341    c-0.502,2.57,0.582,4.795,5.548,4.422c1.043-0.079-2.308,0.957-2.308,0.957s5.305,10.996,13.497,8.301    c2.434-0.8,4.554-3.179,4.554-3.179s-2.654,0.441-1.256-1.722C731.405,613.131,731.996,606.836,727.533,603.336z"/>
		<g>
			<path fill="#FCD2B1" d="M672.324,663.008c-0.214,0.279,1.377,2.259,1.72,2.323c0.86,0.161,1.475-0.044,1.539-0.7     c-0.69-0.234-1.805-1.014-2.393-1.449C672.881,662.92,672.618,662.548,672.324,663.008z"/>
			<path fill="#FCD2B1" d="M674.053,664.507c-1.035-0.048-5.183,0.162-5.525,0.311c-0.219,0.095-0.964,0.122-1.043,0.7     c-0.053,0.386,0.553,0.789,0.553,0.789c-0.505,0.773,1.013,0.949,0.924,1.038c-0.445,0.441,0.251,0.856,2.071,0.917     c1.464,0.05,3.691,0.296,6.031,0.217c0.095-0.896-0.397-3.691-0.443-3.704C675.807,664.628,674.927,664.54,674.053,664.507z"/>
			<path fill="#FCD2B1" d="M700.236,659.379c-0.313,0.003-0.599,0.05-0.827,0.129c-4.165,1.443-18.986,4.554-23.565,5.367     c0.57,1.401,1.069,2.648,1.18,3.605c6.631-0.221,26.161-1.754,26.435-4.799C703.711,660.891,701.62,659.366,700.236,659.379z"/>
			<path fill="#D3D3D3" d="M709.943,636.189c-2.223,3.417-6.294,15.927-9.389,21.541c-3.796,6.888,2.365,7.077,4.187,5.362     c4.8-4.516,15.823-19.185,13.741-21.916C717.578,639.993,710.346,635.57,709.943,636.189z"/>
			<path fill="#FFBE55" d="M709.026,633.92c-1.334,3.947-2.612,7.587-4.301,11.861c-1.7,4.3-5.464,12.443-5.652,12.893     c-1.686,0.876-17.769,4.343-20.392,4.969l0.865,5.364c6.518-0.79,22.181-1.693,25.873-5.288     c3.908-3.695,16.394-18.583,14.621-22.902C718.274,636.516,709.132,633.606,709.026,633.92z"/>
		</g>
	</g>
	<g>
		<g>
			<polygon fill="#0B4870" points="742.136,702.668 755.303,740.999 756.778,740.999 743.611,702.668    "/>
			<polygon fill="#0B4870" points="719.876,702.668 733.044,740.999 734.519,740.999 721.351,702.668    "/>
			<path fill="#0B4870" d="M745.065,645.996c-9.234,0-18.122,7.485-19.851,16.718l-5.78,24.005     c-1.017,5.426-6.963,9.359-12.484,9.359h-12.023c-1.812,0-3.28,1.468-3.28,3.28c0,1.81,1.467,3.277,3.276,3.28l49.581,0.051     c2.302,0.003,4.282-1.631,4.716-3.892l9.432-36.084C760.381,653.481,754.298,645.996,745.065,645.996z"/>
			<path fill="#0B4870" d="M745.065,645.995c-9.234,0-18.122,7.486-19.851,16.719l-5.78,24.027     c-1.017,5.427-6.963,9.384-12.484,9.384h-12.023c-1.812,0-3.28,1.445-3.28,3.257c0,1.81,1.467,3.265,3.276,3.268l1.557-0.022     c0.5-1.17,1.662-2.016,3.016-2.016h12.023c5.521,0,11.468-3.915,12.484-9.341l5.781-23.995     c1.729-9.233,10.616-16.715,19.85-16.715c2.813,0,5.328,0.704,7.425,1.933C754.74,648.545,750.445,645.995,745.065,645.995z"/>
			<polygon fill="#0B4870" points="690.946,740.999 692.422,740.999 705.589,702.668 704.113,702.668    "/>
			<polygon fill="#0B4870" points="713.206,740.999 714.681,740.999 727.848,702.668 726.373,702.668    "/>
		</g>
	</g>
	<g>
		<path fill="#D3D3D3" d="M813.752,674.381c-5.536,0.419-30.635,5.686-41.851,12.611c-6.727,4.155-2.736,8.894,1.348,9.737    c6.785,1.399,31.67-2.028,41.249-7.647C821.86,684.763,816.707,674.157,813.752,674.381z"/>
		<path fill="#FCD2B1" d="M789.782,732.123c0.41,1.321,0.366,2.269,0.366,2.269c1.169,1.18,3.365,1.223,3.41,1.123    c0,0,0.751-1.852,0.077-3.594C793.401,731.313,791.296,730.725,789.782,732.123z"/>
		<path fill="#FCD2B1" d="M769.165,694.37c10.063,18.143,20.865,38.462,20.865,38.462c1.575-0.465,2.651,0,3.606-0.912    c0,0-5.631-19.492-11.517-36.769C778.237,683.76,765.06,686.97,769.165,694.37z"/>
		<path fill="#D3D3D3" d="M790.088,733.499c0,0-0.102,0.214-0.65,0.742c-1.055,1.016-5.827,3.138-5.992,4.716    c-0.083,0.797,1.52,1.688,2.882,1.886c1.362,0.197,2.569,0.245,3.346-0.111c0.968-0.444,2.903-2.554,3.284-2.986    c0.942-1.067,0.601-3.023,0.601-3.023C792.766,732.835,790.088,733.499,790.088,733.499z"/>
		<path fill="#D3D3D3" d="M790.089,735.442c-1.373,0.957-5.799,2.512-5.937,3.842c-0.071,0.671,1.28,1.421,2.427,1.587    c1.147,0.166,2.163,0.206,2.818-0.093c0.816-0.374,2.482-2.121,2.765-2.514C793.713,736.115,791.422,734.512,790.089,735.442z"/>
		<path fill="#FCD2B1" d="M814.057,732.886c0.677,1.157,0.506,2.58,1.063,3.637c0.046,0.1,2.975-0.952,4.144-2.132    c0,0-0.897-1.386-1.546-2.677C815.622,731.05,813.95,732.702,814.057,732.886z"/>
		<path fill="#FCD2B1" d="M796.454,703.083c10.064,18.142,17.855,30.195,17.855,30.195c0.636-1.168,1.941-1.789,3.528-1.334    c0,0-4.673-14.141-10.56-31.418C803.396,689.135,792.35,695.681,796.454,703.083z"/>
		<path fill="#D3D3D3" d="M819.077,734.241l-0.03-0.029c-0.761-0.733-1.882-1.035-2.869-0.657c-0.014,0.006-0.027,0.01-0.04,0.015    c-0.764,0.307-1.209,1.107-1.146,1.927c0.055,0.721,0.197,1.756,0.566,2.25c0.344,0.461,2.315,2.542,3.284,2.986    c0.777,0.355,1.984,0.307,3.346,0.111c1.363-0.198,2.965-1.089,2.882-1.886C824.904,737.379,820.132,735.256,819.077,734.241z"/>
		<path fill="#D3D3D3" d="M818.426,735.442c-1.332-0.93-3.624,0.674-2.072,2.822c0.284,0.393,1.949,2.14,2.765,2.514    c0.654,0.299,1.671,0.259,2.818,0.093s2.497-0.916,2.427-1.587C824.225,737.954,819.799,736.399,818.426,735.442z"/>
		<path fill="#0B4870" d="M803.65,670.287c-3.253,9.08-32.602,9.08-36.553,21.173c11.156-1.307,16.96,13.151,29.637,15.288    c18.92,3.189,31.516-8.706,36.964-16.595c-0.026-4.985-1.7-14.991-2.297-20.593C830.058,669.832,807.048,671.322,803.65,670.287z"/>
		<path fill="#FCD2B1" d="M815.79,620.447c-0.468,0.346-5.324,3.06-6.713,2.854c0.012,0.385,0.959,4.452,0.067,6.644    c0.392,2.035,6.431,3.01,7.977-0.443C816.47,628.521,815.521,622.325,815.79,620.447z"/>
		<path fill="#FCD2B1" d="M808.815,610.764c-3.148-0.206-6.192,0.533-6.879,3.507c-0.247,1.065,0.201,10.808,5.369,12.112    c3.686,0.93,6.323-3.11,6.488-5.635c0,0,0.226-3.444,0.227-3.478C814.239,613.923,812.196,610.986,808.815,610.764z"/>
		<path fill="#D3D3D3" d="M816.723,628.525c0,0-0.145,1.212-1.682,1.471c-2.362,0.397-5.897-0.051-5.897-0.051    c-3.412,0.892-3.611,4.286-5.892,6.628c-3.245,3.33-5.63,7.265-4.439,10.722c0.728,2.113,9.182,13.771,3.5,24.874    c0,0,7.55,8.381,31.302,8.381c-0.113-19.448-5.975-18.312-5.82-34.554C827.914,633.524,816.723,628.525,816.723,628.525z"/>
		<path fill="#0B4870" d="M816.643,607.812c-4.923-3.859-11.187-1.821-13.968,2.921c-2.377,4.052-2.808,7.732-0.365,10.793    c-0.697-2.595,0.194-5.578,0.194-5.578s5.457,12.579,12.87,9.412c2.294-0.979,1.849-2.666,3.211-4.773    C821.228,616.496,820.989,611.219,816.643,607.812z"/>
		<path fill="#D3D3D3" d="M811.168,606.493c-0.881,1.031-0.586,2.728,0.659,3.791c1.244,1.064,2.967,1.09,3.848,0.059    c0.881-1.031,0.586-2.728-0.659-3.792C813.772,605.489,812.049,605.463,811.168,606.493z"/>
		<g>
			<path fill="#D3D3D3" d="M770.522,663.526c-0.197,0.281,1.435,2.14,1.771,2.189c0.844,0.12,1.434-0.107,1.469-0.747     c-0.681-0.198-1.798-0.91-2.39-1.307C771.06,663.42,770.789,663.068,770.522,663.526z"/>
			<path fill="#FCD2B1" d="M772.266,664.913c-1.009-0.004-5.036,0.375-5.362,0.535c-0.208,0.102-0.932,0.159-0.984,0.725     c-0.035,0.378,0.571,0.743,0.571,0.743c-0.459,0.775,1.026,0.881,0.942,0.971c-0.414,0.448,0.281,0.823,2.054,0.805     c1.426-0.014,3.603,0.134,5.875-0.042c0.055-0.877-0.541-3.574-0.585-3.583C773.977,664.957,773.119,664.909,772.266,664.913z"/>
			<path fill="#FCD2B1" d="M797.521,658.825c-0.305,0.017-0.581,0.075-0.799,0.161c-3.991,1.577-18.279,5.227-22.699,6.209     c0.614,1.339,1.152,2.53,1.299,3.457c6.442-0.494,25.375-2.804,25.514-5.777C800.966,660.151,798.867,658.755,797.521,658.825z"/>
			<path fill="#FCD2B1" d="M805.991,635.859c-2.018,3.417-5.454,15.757-8.229,21.349c-3.404,6.859,2.597,6.785,4.298,5.04     c4.48-4.593,14.588-19.326,12.447-21.895C813.578,639.239,806.357,635.24,805.991,635.859z"/>
			<path fill="#D3D3D3" d="M800.298,648.206c0.384-1.018,0.736-1.978,1.019-2.797c1.464-4.228,3.403-8.697,5.65-12.075     c1.193-1.792,7.142,2.494,9.04,6.603c1.279,2.77-3.487,10.434-7.863,16.315C806.351,652.922,803.587,650.093,800.298,648.206z"/>
		</g>
		<g>
			<polygon fill="#0B4870" points="831.653,702.467 844.821,740.8 846.296,740.8 833.128,702.467    "/>
			<polygon fill="#0B4870" points="809.394,702.467 822.561,740.8 824.037,740.8 810.869,702.467    "/>
			<path fill="#0B4870" d="M834.582,645.796c-9.233,0-18.121,7.486-19.85,16.719l-5.78,24.005     c-1.017,5.426-6.963,9.359-12.484,9.359h-12.022c-1.812,0-3.28,1.468-3.28,3.28c0,1.81,1.467,3.278,3.276,3.279l49.581,0.053     c2.302,0.003,4.282-1.631,4.716-3.892l9.432-36.084C849.899,653.282,843.816,645.796,834.582,645.796z"/>
			<path fill="#0B4870" d="M834.582,645.796c-9.233,0-18.121,7.486-19.85,16.719l-5.78,24.027     c-1.017,5.427-6.963,9.383-12.484,9.383h-12.022c-1.812,0-3.28,1.446-3.28,3.257c0,1.811,1.467,3.266,3.276,3.269l1.557-0.022     c0.5-1.172,1.662-2.016,3.016-2.016h12.023c5.521,0,11.468-3.915,12.484-9.341l5.781-23.997     c1.729-9.233,10.616-16.714,19.85-16.714c2.813,0,5.328,0.704,7.424,1.931C844.257,648.345,839.962,645.796,834.582,645.796z"/>
			<polygon fill="#0B4870" points="780.464,740.8 781.938,740.8 795.106,702.467 793.631,702.467    "/>
			<polygon fill="#0B4870" points="802.723,740.8 804.198,740.8 817.365,702.467 815.891,702.467    "/>
		</g>
		<path fill="#0B4870" d="M833.134,615.371c-3.548-20.411-19.415-14.138-21.008-7.897c-0.403,1.577,0.986,2.908,2.813,1.919    c2.182-1.181,9.591-3.084,5.361,11.688c-1.116,3.899-6.446,6.385,4.646,13.203c10.034,6.168,1.89,8.737,2.489,11.654    c1.538,7.492,20.761-9.149,10.245-20.22C835.549,623.477,834.382,622.554,833.134,615.371z"/>
	</g>
</g>
<ellipse fill="#F2F2F2" cx="338" cy="795" rx="72" ry="4"/>
<ellipse fill="#F2F2F2" cx="755" cy="816" rx="72" ry="6"/>
<ellipse fill="#F2F2F2" cx="456" cy="825.5" rx="72" ry="4.5"/>
<ellipse fill="#F2F2F2" cx="592" cy="791.5" rx="72" ry="4.5"/>
</svg>